<?xml version="1.0" encoding="UTF-8"?>
<svg width="148px" height="177px" viewBox="0 0 148 177" version="1.1" xmlns="http://www.w3.org/2000/svg" xmlns:xlink="http://www.w3.org/1999/xlink">
    <!-- Generator: Sketch 52 (66869) - http://www.bohemiancoding.com/sketch -->
    <title>Icon</title>
    <desc>Created with Sketch.</desc>
    <g id="Page-1" stroke="none" stroke-width="1" fill="" fill-rule="evenodd">
        <g id="Login" transform="translate(-106.000000, -127.000000)" fill="#D3C61D">
            <g id="Icon" transform="translate(106.000000, 127.000000)">
                <g id="773106" transform="translate(48.000000, 0.000000)">
                    <path d="M37.7334063,5.93527636 C38.7255625,6.21353255 38.76175,6.25022776 39.0361562,7.25630402 C39.15625,7.69598111 39.5498125,8 40,8 C40.4501875,8 40.84375,7.69598111 40.9638438,7.25630402 C41.23825,6.25022776 41.2744375,6.21353255 42.2665937,5.93527636 C42.7001875,5.81349769 43,5.41441349 43,4.95790983 C43,4.50140617 42.7001875,4.10232197 42.2665937,3.9805433 C41.2744375,3.70228711 41.23825,3.6655919 40.9638438,2.65951564 C40.7235625,1.78016145 39.2763438,1.78016145 39.0360625,2.65951564 C38.7616563,3.6655919 38.7254688,3.70228711 37.7333125,3.9805433 C37.2998125,4.10222691 37,4.50131111 37,4.95781477 C37,5.41431842 37.2998125,5.81340263 37.7334063,5.93527636 Z" id="Path"></path>
                    <path d="M5.26659375,8.9805433 C4.2744375,8.70228711 4.23825,8.6655919 3.96384375,7.65951564 C3.7235625,6.78016145 2.27634375,6.78016145 2.0360625,7.65951564 C1.76165625,8.6655919 1.72546875,8.70228711 0.7333125,8.9805433 C0.2998125,9.10232197 0,9.50140617 0,9.95790983 C0,10.4144135 0.2998125,10.8134977 0.73340625,10.9352764 C1.7255625,11.2135325 1.76175,11.2502278 2.03615625,12.256304 C2.15625,12.6959811 2.5498125,13 3,13 C3.4501875,13 3.84375,12.6959811 3.96384375,12.256304 C4.23825,11.2502278 4.2744375,11.2135325 5.26659375,10.9352764 C5.7001875,10.8134977 6,10.4144135 6,9.95790983 C6,9.50140617 5.7001875,9.10232197 5.26659375,8.9805433 Z" id="Path"></path>
                    <path d="M48.2665995,10.9733249 C48.1308505,10.9354125 48.0507887,10.9064994 48.0419762,10.9134883 C48.0263201,10.8755759 48.0009141,10.8017616 47.9638831,10.6641854 C47.7236037,9.77860485 46.2763963,9.77860485 46.0361169,10.6641854 C45.9989922,10.8018573 45.9735861,10.8755759 45.9775236,10.8935748 C45.9403989,10.9095631 45.8681182,10.9355082 45.7334005,10.9733249 C45.2998102,11.0959658 45,11.4989289 45,11.9576118 C45,12.4162947 45.2998102,12.8192578 45.7334005,12.9418987 C45.8691495,12.9798112 45.9433989,12.993789 45.9580238,13.0017353 C45.9736799,13.0396477 45.9990859,13.113462 46.0361169,13.2510382 C46.1562097,13.6938285 46.5508004,14 46.9999531,14 C47.4491059,14 47.8436965,13.6938285 47.9637893,13.2510382 C48.0009141,13.1133663 48.0263201,13.0396477 48.0223826,13.0216489 C48.0595073,13.0056605 48.131788,12.9797154 48.2665057,12.9418987 C48.7001898,12.8192578 49,12.4163904 49,11.9576118 C49,11.4988332 48.7001898,11.0959658 48.2665995,10.9733249 Z" id="Path"></path>
                    <path d="M16.191103,38.3662703 C18.3037157,38.7348162 20.6125246,38.9499055 23,39 L23,30.8086279 C20.1279156,30.7548797 17.4237035,30.4737348 15,30 C15.0919346,33.0085574 15.513215,35.8532739 16.191103,38.3662703 Z" id="Path"></path>
                    <path d="M15,28.2348356 C17.3069168,28.6689535 19.9966749,28.9479859 23,29 L23,21.5731992 C20.5527488,21.530492 18.1928188,21.3358304 16.0095992,21 C15.4166794,23.1997282 15.0611907,25.6547431 15,28.2348356 Z" id="Path"></path>
                    <path d="M26.0000941,39 C28.3874094,38.9499044 30.6965277,38.735099 32.8090712,38.3664491 C33.4871554,35.8535913 33.9081585,33.008814 34,30 C31.5768326,30.4736488 28.8726828,30.7547996 26,30.8084529 L26,39 L26.0000941,39 Z" id="Path"></path>
                    <path d="M26,21.5733981 L26,29 C28.9877446,28.94607 31.6824863,28.658849 34,28.2159268 C33.937301,25.6428548 33.5822572,23.1941699 32.9907996,21 C30.8074261,21.335932 28.4472358,21.530863 26,21.5733981 Z" id="Path"></path>
                    <path d="M25.5250336,8.21841016 L25.5250336,1.02086523 C25.5250336,0.456599609 25.0665696,0 24.5,0 C23.9334304,0 23.4749664,0.456599609 23.4749664,1.02086523 L23.4749664,8.21841016 C12.6482588,8.75549609 4,17.6698594 4,28.5833652 C4,39.8414023 13.1959941,49 24.5,49 C35.8040059,49 45,39.8414023 45,28.5833652 C45,17.6698594 36.3517412,8.75549609 25.5250336,8.21841016 Z M35.7398152,27.2189258 C39.0050859,26.3289824 41.2959645,25.1133613 42.3197489,23.9008027 C42.5236602,24.669873 42.6832722,25.4555957 42.7858044,26.2603633 C41.1701776,27.5428809 38.7486113,28.6058555 35.7550941,29.358082 C35.7013777,32.3398086 35.3441966,35.1441016 34.7352496,37.6734395 C37.9759203,36.9150879 40.5643056,35.818043 41.9488265,34.503752 C41.5347579,35.7100898 40.9971125,36.8566133 40.3526107,37.9358574 C38.635701,38.756416 36.5158696,39.4284434 34.1061228,39.916625 C33.8491677,40.7137363 33.5653064,41.474002 33.2570371,42.1936895 C32.2767832,44.4817598 30.2366137,46.2082441 27.7784356,46.649627 C27.7656551,46.6518281 27.7530668,46.6542207 27.7402863,46.6565176 C29.3354451,45.3472031 30.735341,43.1360781 31.7769989,40.311209 C29.8115903,40.5944902 27.715398,40.7629277 25.5250336,40.803793 L25.5250336,46.9065898 C25.1837081,46.9254434 24.8460341,46.9582695 24.5,46.9582695 C24.1539659,46.9582695 23.8162919,46.9253477 23.4749664,46.9065898 L23.4749664,40.803793 C21.2844098,40.7629277 19.1884097,40.5943945 17.2230972,40.3114004 C18.264659,43.1361738 19.6642667,45.3472988 21.2595215,46.6564219 C21.246741,46.6542207 21.2341527,46.6518281 21.2213722,46.6495313 C18.7633863,46.2081484 16.7231207,44.4817598 15.743059,42.1935937 C15.4347897,41.4740977 15.1511205,40.7140234 14.8940694,39.9170078 C12.4842265,39.4289219 10.3646834,38.7569902 8.64767757,37.9364316 C8.00269532,36.8564219 7.46476166,35.7093242 7.05059695,34.5022207 C8.43531006,35.8169902 11.0235993,36.9143223 14.2646543,37.6731523 C13.6555151,35.1439102 13.2984302,32.3396172 13.2448098,29.3579863 C10.251773,28.6055684 7.82991848,27.5428809 6.21390737,26.2611289 C6.31653565,25.4561699 6.47595543,24.6703516 6.67996278,23.9010898 C7.71499018,25.1435078 9.98982108,26.3626699 13.2592238,27.2462969 C13.3469576,24.4270742 13.706637,21.7755234 14.2943473,19.3744277 C12.5265079,18.9859688 10.9160702,18.4940547 9.50963986,17.9116055 C9.93495146,17.3209258 10.39601,16.7599141 10.8867615,16.2243594 C12.0810165,16.6815332 13.381167,17.0915254 14.8436201,17.408207 C15.1107611,16.5628613 15.4077874,15.7578066 15.7320082,14.9978281 C16.7115894,12.7013359 18.7485879,10.9618359 21.2140691,10.5179648 C21.2266574,10.5157637 21.2394379,10.5134668 21.2521223,10.5112656 C19.4831297,11.9607852 17.9539874,14.5208438 16.88821,17.7892969 C18.9438507,18.1171758 21.1644846,18.3094434 23.4747742,18.3539453 L23.4747742,10.2600449 C23.8160997,10.2411914 24.1537737,10.2083652 24.4998078,10.2083652 C24.8458419,10.2083652 25.1835159,10.2412871 25.5248414,10.2600449 L25.5248414,18.3539453 C27.8348427,18.3093477 30.0557649,18.1172715 32.1114056,17.7894883 C31.0456282,14.5208438 29.516486,11.9607852 27.7474934,10.5113613 C27.7601778,10.5135625 27.7728621,10.5158594 27.7855465,10.5180605 C30.2509316,10.9619316 32.287834,12.7013359 33.2674153,14.9976367 C33.5917322,15.7578066 33.8887584,16.5628613 34.1559956,17.4083984 C35.6182564,17.0917168 36.9185991,16.6818203 38.1128541,16.2245508 C38.6033173,16.7599141 39.0643759,17.3206387 39.4893031,17.9109355 C38.0831611,18.4937676 36.4731078,18.9859688 34.7053644,19.3745234 C35.2914411,21.7678672 35.6506401,24.409752 35.7398152,27.2189258 Z" id="Shape" fill-rule="nonzero"></path>
                </g>
                <g id="42175" transform="translate(0.000000, 26.000000)">
                    <path d="M51.1856174,83.9822354 L51.1856174,104.071668 C51.1856174,105.688762 52.4867568,107 54.0928087,107 C55.6988605,107 57,105.688762 57,104.071668 L57,85.8181865 L47.7911059,76.0248161 C45.7797634,73.885184 44.9861817,70.8967678 45.6691315,68.0309659 L47.885278,58.726693 L45.2951416,58.726693 L47.2379462,55.7575797 C47.6475542,55.9462588 48.0784791,56.0952447 48.5309907,56.1876811 C48.9983431,54.7976 49.7908455,53.5836918 50.810818,52.6253433 C52.1475755,51.3706544 53.8742432,50.560476 55.7649699,50.3598345 C56.0480257,50.3299286 56.3337799,50.3106257 56.6246609,50.3089945 L56.6246609,40.7244217 C56.6246609,39.1070556 55.3232516,37.7960892 53.7182791,37.7960892 C52.1133066,37.7960892 50.8118973,39.1081431 50.8118973,40.7244217 L50.8118973,44.2584848 C50.4643511,44.1954105 50.1076306,44.1568047 49.7417357,44.1568047 C49.3734124,44.1568047 49.0150728,44.1951387 48.6650982,44.2590286 L48.6650982,35.919901 C48.6650982,34.3025349 47.3639587,32.9915685 45.7579068,32.9915685 C44.1529343,32.9915685 42.851525,34.3025349 42.851525,35.919901 L42.851525,51.821418 L41.4438012,53.9735562 L40.0360773,51.821418 L40.0360773,35.919901 C40.0360773,34.3025349 38.734668,32.9915685 37.1296955,32.9915685 C35.5247229,32.9915685 34.2233137,34.3025349 34.2233137,35.919901 L34.2233137,44.2590286 C33.873339,44.1959543 33.5149995,44.1568047 33.1466761,44.1568047 C32.4043628,44.1568047 31.6960486,44.29845 31.038733,44.5461253 L31.038733,30.9283325 C31.038733,29.3109664 29.7373237,28 28.1315417,28 C26.5257597,28 25.2251599,29.3112383 25.2251599,30.9283325 L25.2251599,46.8298495 L23.4407478,49.5578124 L23.4407478,35.919901 C23.4407478,34.3025349 22.1393385,32.9915685 20.534366,32.9915685 C18.9293934,32.9915685 17.6279842,34.3025349 17.6279842,35.919901 L17.6279842,39.5545568 C16.9706686,39.3074252 16.2631639,39.1652362 15.5200411,39.1652362 C12.1892104,39.1652362 9.48898178,41.8855867 9.48898178,45.2415737 C9.48898178,48.5975607 12.1889406,51.3181831 15.5200411,51.3181831 C16.2623544,51.3181831 16.9706686,51.1765378 17.6279842,50.9288625 L17.6279842,52.6992924 C17.6279842,53.0554447 17.69976,53.4048001 17.8236138,53.7343089 L15.5200411,53.7343089 L10.3303241,53.7343089 L5.81303345,46.8293057 L5.81303345,30.9288762 C5.81303345,29.3115102 4.51162416,28.0005437 2.90665164,28.0005437 C1.30167912,28.0005437 0,29.3112383 0,30.9283325 L0,47.7082677 C0,48.2813737 0.1667574,48.841158 0.479764818,49.3196526 L8.3187118,61.3026795 L8.3187118,74.1051284 C8.28147471,74.2929919 8.26096733,74.4868366 8.26096733,74.6858468 L8.26096733,99.0803708 C8.26096733,100.697737 9.56210679,102.008703 11.1673491,102.008703 C12.7725915,102.008703 14.0745405,100.697737 14.0745405,99.0803708 L14.0745405,78.990395 L15.5195014,78.990395 L16.9644624,78.990395 L16.9644624,99.0798271 C16.9644624,100.697193 18.2658717,102.00816 19.8716537,102.00816 C21.4774357,102.00816 22.778845,100.697193 22.778845,99.0798271 L22.778845,74.6853031 C22.778845,74.4865647 22.7583376,74.29272 22.7211005,74.1045847 L22.7211005,61.3627632 L25.9469658,66.2937043 L25.9469658,79.0961532 C25.9097287,79.2840167 25.8892213,79.4778614 25.8892213,79.6768716 L25.8892213,104.071668 C25.8892213,105.688762 27.1903608,107 28.7964126,107 C30.401655,107 31.7027944,105.688762 31.7027944,104.071668 L31.7027944,83.9822354 L33.1477554,83.9822354 L34.5927164,83.9822354 L34.5927164,104.071668 C34.5927164,105.688762 35.8938558,107 37.4990982,107 C39.1043405,107 40.40548,105.688762 40.40548,104.071668 L40.40548,79.6768716 C40.40548,79.4781332 40.3847028,79.2842886 40.3477355,79.0961532 L40.3477355,66.2937043 L41.4451503,64.6157108 L42.5422953,66.2937043 L42.5422953,79.0961532 C42.5050582,79.2840167 42.4845508,79.4778614 42.4845508,79.6768716 L42.4845508,104.071668 C42.4845508,105.688762 43.7856903,107 45.3909326,107 C46.996175,107 48.2981239,105.688762 48.2981239,104.071668 L48.2981239,83.9822354 L49.7430849,83.9822354 L51.1856174,83.9822354 Z M33.1442476,58.7264211 L27.9553401,58.7264211 L26.1792928,56.0109644 L27.9480546,53.3071981 C28.9966294,55.1015528 30.9278312,56.3094797 33.1439777,56.3094797 C34.0382075,56.3094797 34.8830577,56.1080226 35.6466879,55.757036 L37.5894926,58.7261493 L33.1442476,58.7261493 L33.1442476,58.7264211 Z" id="Shape" fill-rule="nonzero"></path>
                    <path d="M63.9527571,53 C64.2630466,52.5280605 64.5960402,52.0713106 64.9604271,51.6390769 C65.3001478,51.2361563 65.6561258,50.8473592 66.038732,50.4820125 C66.7103251,49.840324 67.4455458,49.2604594 68.2337427,48.7485477 C69.0956579,48.1892022 70.0228825,47.7161968 71,47.3345947 L71,42.7313862 C71,41.1463519 69.6481246,39.8611096 67.9809143,39.8611096 C67.2372847,39.8611096 66.5648507,40.1270586 66.0390123,40.5499654 L66.0390123,35.8702766 C66.0390123,34.2849758 64.6871369,33 63.0190857,33 C61.3510346,33 60,34.2849758 60,35.8702766 L60,50.4289826 C60.6928957,50.651495 61.3373,50.9531525 61.9332127,51.3153014 C62.6995464,51.7803123 63.3770258,52.3500506 63.9527571,53 Z" id="Path"></path>
                    <polygon id="Path" points="62 89.4864831 60 87 60 105 62 102.121209"></polygon>
                    <path d="M144.070039,30.0002719 C142.452468,30.0002719 141.140351,31.3114876 141.140351,32.928554 L141.140351,48.8297973 L136.587107,55.7346817 L131.356861,55.7346817 L129.034816,55.7346817 C129.159663,55.404363 129.232014,55.0558291 129.232014,54.6996831 L129.232014,52.9292835 C129.894601,53.1764109 130.608051,53.3185974 131.356045,53.3185974 C134.713586,53.3185974 137.435196,50.5982938 137.435196,47.2423645 C137.435196,43.8864352 134.713586,41.1658597 131.356045,41.1658597 C130.608051,41.1658597 129.893513,41.3075025 129.232014,41.5551736 L129.232014,37.9205804 C129.232014,36.3032421 127.92044,34.9922982 126.301237,34.9922982 C124.683666,34.9922982 123.371821,36.3032421 123.371821,37.9205804 L123.371821,51.5590726 L121.572011,48.8311567 L121.572011,32.9282821 C121.572011,31.3109439 120.260438,30 118.642595,30 C117.02448,30 115.711818,31.3112157 115.711818,32.9282821 L115.711818,46.5458406 C115.049232,46.2987133 114.335781,46.1565267 113.586971,46.1565267 C113.216238,46.1565267 112.855025,46.19486 112.5017,46.2587488 L112.5017,37.9200366 C112.5017,36.3026984 111.190126,34.9917545 109.572011,34.9917545 C107.95444,34.9917545 106.642595,36.3026984 106.642595,37.9200366 L106.642595,53.82128 L105.223038,55.9733811 L105,55.635722 L105,56.3113121 L105,66.2785091 L105,66.9540992 L105.223038,66.6164401 L106.328981,68.2944047 L106.328981,81.0966333 C106.291718,81.2844936 106.271046,81.4783349 106.271046,81.6773418 L106.271046,106.071718 C106.271046,107.688784 107.582619,109 109.201278,109 C110.819393,109 112.130967,107.688784 112.130967,106.071718 L112.130967,85.9826315 L113.587515,85.9826315 L115.044064,85.9826315 L115.044064,106.071718 C115.044064,107.688784 116.355637,109 117.97348,109 C119.591595,109 120.904257,107.688784 120.904257,106.071718 L120.904257,81.6770699 C120.904257,81.4783349 120.883585,81.2844936 120.845777,81.0963615 L120.845777,68.2941328 L124.097511,63.3632766 L124.097511,76.1051507 C124.060247,76.2930109 124.039576,76.4868523 124.039576,76.6858591 L124.039576,101.079963 C124.039576,102.697302 125.351149,104.008245 126.969808,104.008245 C128.588467,104.008245 129.899497,102.697302 129.899497,101.079963 L129.899497,80.990877 L131.356045,80.990877 L132.812321,80.990877 L132.812321,101.079963 C132.812321,102.697302 134.124439,104.008245 135.743098,104.008245 C137.361757,104.008245 138.672786,102.697302 138.672786,101.079963 L138.672786,76.6858591 C138.672786,76.4871242 138.652114,76.2932828 138.614307,76.1051507 L138.614307,63.3026502 L146.516115,51.3198294 C146.831633,50.8413431 147,50.2815684 147,49.7084723 L147,32.9288258 C147.000816,31.3123032 145.689242,30.0002719 144.070039,30.0002719 Z M118.819393,60.7269799 L113.589147,60.7269799 L109.108799,60.7269799 L111.067455,57.7579177 C111.836121,58.1097139 112.688834,58.3103519 113.590235,58.3103519 C115.824153,58.3103519 117.771658,57.1024458 118.827825,55.3081219 L120.610771,58.0118417 L118.819393,60.7269799 Z" id="Shape" fill-rule="nonzero"></path>
                    <path d="M103.942871,71 C103.780647,71.3360258 103.604949,71.6655267 103.398531,71.9808907 L92,89.4284028 L92,107.581406 C92.059554,107.995729 92.0900047,108.413586 92.0900047,108.826822 L92.0900047,108.967376 C92.1948306,108.979066 92.2977701,109 92.4058296,109 C94.0089376,109 95.308347,107.688793 95.308347,106.071737 L95.308347,85.9827795 L96.7513867,85.9827795 L98.1944264,85.9827795 L98.1944264,106.071737 C98.1944264,107.688793 99.4938358,109 101.097483,109 C102.70113,109 104,107.688793 104,106.071737 L104,81.6775174 C104,81.4787838 103.97952,81.2849437 103.942063,81.0968127 L103.942063,71 L103.942871,71 Z" id="Path"></path>
                    <path d="M88,37.0000819 C88,35.3430875 86.6483704,34 84.9808373,34 C83.3138649,34 81.9611141,35.3430875 81.9611141,37.0000819 L81.9611141,37.3930924 C81.4344214,36.9499459 80.7628112,36.6728053 80.0191627,36.6728053 C78.3516296,36.6728053 77,38.0170069 77,39.6728872 L77,45.6424124 C78.7454578,45.7045253 80.4157939,46.0593767 81.9611141,46.6668578 C82.328033,46.8108595 82.6859822,46.9729659 83.0386056,47.1439853 C84.9536478,48.0765147 86.6469689,49.3881279 87.9997197,51 L87.9997197,37.0000819 L88,37.0000819 Z" id="Path"></path>
                    <path d="M24.5884124,24.1337531 C26.3581873,21.8704701 26.437505,18.6871664 24.9742597,16.1970989 C23.3914871,13.5041329 16.4743275,8.37477624 20.2945186,5.39088196 C22.4148886,3.73441537 19.4129361,0.848481273 17.3145988,2.48696613 C14.8268339,4.43006692 14.5899826,7.41288767 15.4555915,10.2378986 C16.6092776,14.001717 24.1882439,17.918246 20.9502662,22.0607544 C19.301671,24.1681063 22.9643285,26.209704 24.5884124,24.1337531 Z" id="Path"></path>
                    <path d="M132.451121,7.17910331 C135.017943,6.9023398 134.154491,2.73947137 131.615125,3.01289367 C128.602718,3.33754784 126.834759,5.80391723 126.028312,8.74000496 C124.953834,12.6514474 128.919125,20.2276396 124.144773,22.0541674 C121.715235,22.9835805 123.552228,26.7741825 125.94568,25.8584127 C128.555126,24.859948 130.304257,22.1315721 130.457493,19.1598448 C130.621711,15.9456014 127.826081,7.67777881 132.451121,7.17910331 Z" id="Path"></path>
                    <path d="M50.9458048,24.7968262 C51.3866314,27.7105277 53.4343417,30.2173646 56.1938675,30.9273776 C58.7258699,31.5789125 60.23831,27.6498428 57.6692814,26.9881018 C52.6192285,25.6875147 55.9419283,17.8037221 54.4708072,14.0602929 C53.3664603,11.2503074 51.3246527,9.00413956 48.2179392,9.00000196 C45.5990057,8.99669187 45.1155185,13.1908442 47.7631607,13.1941542 C52.5312242,13.2018778 50.4695619,21.6461779 50.9458048,24.7968262 Z" id="Path"></path>
                    <path d="M102.077906,8.86360021 C103.343128,6.09034387 103.513868,3.01168353 101.261053,0.698192974 C99.3623768,-1.25290698 95.9253507,1.30097857 97.8448422,3.27254944 C101.302683,6.82453063 93.5937761,11.1552367 91.6208404,13.6980569 C89.796986,16.0494463 89.4397535,19.3128982 90.9210024,21.8590379 C92.2796108,24.1943826 96.2682376,22.5912883 94.8902205,20.2202578 C92.1805984,15.5617404 100.393007,12.5586012 102.077906,8.86360021 Z" id="Path"></path>
                    <path d="M35,25 C39,25 39,19 35,19 C31,19 31,25 35,25 Z" id="Path"></path>
                    <path d="M7.0001086,17 C10.9999638,17 10.9999638,11 7.0001086,11 C2.9999638,11 2.9999638,17 7.0001086,17 Z" id="Path"></path>
                    <path d="M112.000054,16 C115.999982,16 115.999982,10 112.000054,10 C108.000127,10 107.999837,16 112.000054,16 Z" id="Path"></path>
                    <path d="M144.999946,16 C141.000018,16 141.000018,22 144.999946,22 C148.999873,22 149.000163,16 144.999946,16 Z" id="Path"></path>
                    <path d="M89.7306723,85.8041906 L100.256001,69.827338 C100.741961,69.0905671 101,68.2272909 101,67.3452833 L101,60.8766845 L101,60.1190104 L101,56.9756536 L101,47.8165108 L101,35.5112966 C101,35.4008081 100.991589,35.2919484 100.983449,35.1833602 C100.81495,32.8457278 98.8700257,31 96.4896099,31 C93.9987609,31 91.9808477,33.0202834 91.9808477,35.511568 L91.9808477,40.1784172 L91.9808477,49.0362277 L91.9808477,55.7548508 L91.9808477,60.8761416 L91.9808477,65.9917315 L89.7884665,69.3186023 L84.973368,76.629574 L74.1029017,76.629574 L73.1081901,76.629574 L67.0015403,76.629574 L59.46523,68.6697878 L60.9597393,62.4403545 L61.5460928,59.9971202 C61.5477208,59.9887046 61.5485348,59.979746 61.5509768,59.9713305 C61.5783815,59.8524264 61.6000883,59.7337938 61.6174537,59.6157041 C61.6231517,59.556795 61.6331911,59.4995147 61.6399744,59.4403342 C61.69804,58.9229114 61.6641232,58.412004 61.5501628,57.924443 C61.442443,57.4615858 61.2655331,57.0199033 61.0229602,56.6170411 C60.4208694,55.6177582 59.4361972,54.8503112 58.2132935,54.5560372 C58.1842607,54.5495219 58.1560419,54.5468072 58.1270092,54.5402919 C57.800594,54.4680807 57.4752642,54.428989 57.1540044,54.428989 C57.136639,54.428989 57.1200876,54.4333325 57.1027222,54.4333325 C55.0875223,54.4564075 53.2676831,55.8395496 52.7760254,57.8888803 L52.58582,58.6821171 L52.291965,59.9080778 L50.1250892,68.9420727 C49.7688273,70.4264733 50.1872248,71.9906863 51.2359318,73.0988288 L57.4804195,79.6947473 L59.6226039,81.9574538 L65.99896,88.6929081 L65.99896,88.6986089 L65.99896,104.087999 L65.4096219,104.808211 L60.4610269,110.859016 L51.0191357,122.406556 C49.508889,124.254999 49.697195,126.959388 51.4508286,128.580067 L62.9402084,139.191577 C63.8071215,139.992415 64.9038548,140.387676 65.997332,140.387676 C67.2120957,140.387676 68.423332,139.8993 69.3116806,138.936394 C71.0012793,137.104783 70.8867762,134.251357 69.0568976,132.560096 L60.689219,124.831874 L68.2906496,115.538353 L79.1654572,115.538353 L79.1654572,146.488432 C79.1654572,148.979717 81.1849984,151 83.674762,151 C86.1650682,151 88.1840668,148.979717 88.1840668,146.488432 L88.1840668,108.906058 C88.1840668,108.599567 88.151778,108.299864 88.0934411,108.010476 L88.0934411,88.2905888 L89.7306723,85.8041906 Z" id="Path"></path>
                    <path d="M66.2980355,62.9446539 C66.9946388,65.8600498 68.8973546,68.3051146 71.4599671,69.7109036 C72.39215,70.2220498 73.4114424,70.5934936 74.4885341,70.8022253 C75.1407607,70.9287792 75.8121625,71 76.5002739,71 C80.6242858,71 84.1826329,68.6160208 85.8998983,65.1568814 C86.3006574,64.3496211 86.6093762,63.4889451 86.7918134,62.5800582 C86.9271347,61.9078434 87,61.212071 87,60.4995891 C87,59.6789064 86.8961806,58.8845206 86.7181263,58.1183491 C86.1647883,55.7351917 84.8033576,53.6673232 82.9329655,52.2138711 C82.5974016,51.9530934 82.2454019,51.7142298 81.8799797,51.4953628 C81.2439148,51.1148794 80.5664867,50.7971251 79.8523519,50.5566179 C78.9598889,50.2555731 78.0134617,50.0764254 77.0319715,50.0268448 C76.8550129,50.0175313 76.6799718,50 76.5005479,50 C74.9753072,50 73.5292322,50.3328203 72.2214917,50.9179265 C71.776356,51.116523 71.3506692,51.3479906 70.9405964,51.6043854 C68.2818345,53.2698564 66.4193864,56.0844475 66.0646474,59.3586867 C66.0580731,59.4181287 66.0572513,59.4775707 66.0487595,59.5370126 C66.0227362,59.8194305 66.0084918,60.1054094 66.0052047,60.3935797 C66.0052047,60.4286422 66,60.4631569 66,60.4993152 C66,60.8387097 66.019449,61.1731735 66.0512249,61.5043502 C66.0977929,61.9965955 66.1857243,62.4754184 66.2980355,62.9446539 Z" id="Path"></path>
                </g>
            </g>
        </g>
    </g>
</svg>